<svg width="1012" height="103" viewBox="0 0 1012 103" fill="none" xmlns="http://www.w3.org/2000/svg">
<path d="M113.091 54.4805H13.7727C11.69 54.4805 9.99698 56.2457 10.1784 58.3197C12.3552 83.013 35.3658 102.444 63.4287 102.444C91.4916 102.444 114.502 83.013 116.679 58.3197C116.867 56.2457 115.174 54.4805 113.091 54.4805Z" fill="#FF6633"/>
<path d="M45.5036 17.5315C44.3951 17.5315 43.2933 17.0349 42.5744 16.0818C38.9464 11.3163 32.0533 8.34959 24.5892 8.34959C17.125 8.34959 10.2319 11.3096 6.6039 16.0818C5.37442 17.6993 3.06328 18.0081 1.45086 16.7798C-0.168285 15.5515 -0.477334 13.2426 0.75214 11.6317C5.81784 4.97348 14.7265 1 24.5892 1C34.4518 1 43.3605 4.97348 48.4329 11.6317C49.6624 13.2493 49.3466 15.5515 47.7342 16.7798C47.0623 17.2899 46.283 17.5315 45.5036 17.5315Z" fill="#414141"/>
<path d="M123.182 17.5315C122.074 17.5315 120.972 17.0349 120.253 16.0818C116.625 11.3163 109.732 8.34959 102.268 8.34959C94.8037 8.34959 87.9106 11.3096 84.2826 16.0818C83.0531 17.6993 80.742 18.0081 79.1296 16.7798C77.5104 15.5515 77.2014 13.2426 78.4308 11.6317C83.4966 4.97348 92.4052 1 102.268 1C112.131 1 121.039 4.97348 126.112 11.6317C127.341 13.2493 127.025 15.5515 125.413 16.7798C124.741 17.2899 123.962 17.5315 123.182 17.5315Z" fill="#414141"/>
<path d="M207 31.5L207 72.5L167 31.5L207 31.5Z" fill="#E5FFDE"/>
<rect x="207" y="3.5" width="805" height="96" rx="16" fill="#E5FFDE"/>
<path d="M255.592 59.74C253.304 59.74 251.504 59.188 250.192 58.084C248.896 56.98 248.208 55.364 248.128 53.236C248.112 52.804 248.104 52.1 248.104 51.124C248.104 50.132 248.112 49.412 248.128 48.964C248.208 46.884 248.904 45.284 250.216 44.164C251.544 43.028 253.336 42.46 255.592 42.46C257.016 42.46 258.288 42.692 259.408 43.156C260.544 43.62 261.44 44.292 262.096 45.172C262.752 46.052 263.096 47.092 263.128 48.292C263.128 48.436 263.072 48.556 262.96 48.652C262.864 48.748 262.744 48.796 262.6 48.796H259.192C258.968 48.796 258.8 48.756 258.688 48.676C258.592 48.58 258.504 48.412 258.424 48.172C258.2 47.388 257.856 46.844 257.392 46.54C256.944 46.22 256.344 46.06 255.592 46.06C253.784 46.06 252.848 47.068 252.784 49.084C252.768 49.516 252.76 50.18 252.76 51.076C252.76 51.972 252.768 52.652 252.784 53.116C252.848 55.132 253.784 56.14 255.592 56.14C256.328 56.14 256.928 55.98 257.392 55.66C257.872 55.34 258.216 54.796 258.424 54.028C258.488 53.788 258.576 53.628 258.688 53.548C258.8 53.452 258.968 53.404 259.192 53.404H262.6C262.744 53.404 262.864 53.452 262.96 53.548C263.072 53.644 263.128 53.764 263.128 53.908C263.096 55.108 262.752 56.148 262.096 57.028C261.44 57.908 260.544 58.58 259.408 59.044C258.288 59.508 257.016 59.74 255.592 59.74ZM265.913 59.5C265.753 59.5 265.609 59.444 265.481 59.332C265.369 59.204 265.313 59.06 265.313 58.9V47.62C265.313 47.444 265.369 47.3 265.481 47.188C265.609 47.076 265.753 47.02 265.913 47.02H277.073C277.249 47.02 277.393 47.076 277.505 47.188C277.617 47.3 277.673 47.444 277.673 47.62V58.9C277.673 59.06 277.617 59.204 277.505 59.332C277.393 59.444 277.249 59.5 277.073 59.5H274.073C273.913 59.5 273.769 59.444 273.641 59.332C273.529 59.204 273.473 59.06 273.473 58.9V50.284H269.537V58.9C269.537 59.076 269.473 59.22 269.345 59.332C269.233 59.444 269.089 59.5 268.913 59.5H265.913ZM284.292 59.74C283.444 59.74 282.668 59.58 281.964 59.26C281.276 58.924 280.732 58.468 280.332 57.892C279.948 57.316 279.756 56.684 279.756 55.996C279.756 54.908 280.204 54.028 281.1 53.356C282.012 52.668 283.26 52.196 284.844 51.94L287.82 51.484V51.196C287.82 50.604 287.7 50.172 287.46 49.9C287.22 49.628 286.812 49.492 286.236 49.492C285.916 49.492 285.644 49.548 285.42 49.66C285.212 49.772 284.972 49.94 284.7 50.164C284.492 50.34 284.308 50.468 284.148 50.548C284.084 50.66 284.004 50.716 283.908 50.716H281.124C280.964 50.716 280.828 50.668 280.716 50.572C280.62 50.46 280.58 50.332 280.596 50.188C280.612 49.756 280.828 49.276 281.244 48.748C281.66 48.204 282.292 47.74 283.14 47.356C283.988 46.972 285.036 46.78 286.284 46.78C288.268 46.78 289.74 47.22 290.7 48.1C291.66 48.964 292.14 50.14 292.14 51.628V58.9C292.14 59.06 292.084 59.204 291.972 59.332C291.86 59.444 291.716 59.5 291.54 59.5H288.588C288.428 59.5 288.284 59.444 288.156 59.332C288.044 59.204 287.988 59.06 287.988 58.9V58.06C287.636 58.556 287.148 58.964 286.524 59.284C285.9 59.588 285.156 59.74 284.292 59.74ZM285.492 56.908C286.196 56.908 286.764 56.676 287.196 56.212C287.644 55.748 287.868 55.076 287.868 54.196V53.908L285.876 54.244C284.532 54.5 283.86 54.98 283.86 55.684C283.86 56.052 284.012 56.348 284.316 56.572C284.636 56.796 285.028 56.908 285.492 56.908ZM300.559 59.74C298.735 59.74 297.255 59.26 296.119 58.3C294.999 57.324 294.399 55.972 294.319 54.244L294.295 53.284L294.319 52.3C294.383 50.572 294.983 49.22 296.119 48.244C297.255 47.268 298.735 46.78 300.559 46.78C301.951 46.78 303.119 47.028 304.063 47.524C305.007 48.02 305.711 48.612 306.175 49.3C306.639 49.972 306.887 50.588 306.919 51.148C306.935 51.324 306.879 51.476 306.751 51.604C306.623 51.716 306.471 51.772 306.295 51.772H303.079C302.903 51.772 302.767 51.732 302.671 51.652C302.575 51.572 302.487 51.444 302.407 51.268C302.231 50.82 301.999 50.492 301.711 50.284C301.439 50.076 301.087 49.972 300.655 49.972C299.423 49.972 298.783 50.788 298.735 52.42L298.711 53.332L298.735 54.124C298.751 54.956 298.919 55.572 299.239 55.972C299.559 56.356 300.031 56.548 300.655 56.548C301.119 56.548 301.479 56.452 301.735 56.26C302.007 56.052 302.231 55.716 302.407 55.252C302.487 55.076 302.575 54.948 302.671 54.868C302.767 54.788 302.903 54.748 303.079 54.748H306.295C306.455 54.748 306.599 54.804 306.727 54.916C306.855 55.028 306.919 55.164 306.919 55.324C306.919 55.82 306.695 56.42 306.247 57.124C305.815 57.812 305.119 58.42 304.159 58.948C303.199 59.476 301.999 59.74 300.559 59.74ZM321.241 47.02C321.401 47.02 321.537 47.076 321.649 47.188C321.777 47.3 321.841 47.436 321.841 47.596V58.9C321.841 59.06 321.785 59.204 321.673 59.332C321.561 59.444 321.417 59.5 321.241 59.5H318.241C318.065 59.5 317.913 59.444 317.785 59.332C317.673 59.22 317.617 59.076 317.617 58.9V52.396L312.937 59.116C312.761 59.372 312.537 59.5 312.265 59.5H309.577C309.417 59.5 309.273 59.444 309.145 59.332C309.033 59.204 308.977 59.06 308.977 58.9V47.62C308.977 47.444 309.033 47.3 309.145 47.188C309.273 47.076 309.417 47.02 309.577 47.02H312.577C312.753 47.02 312.897 47.076 313.009 47.188C313.137 47.3 313.201 47.444 313.201 47.62V54.124L317.881 47.404C318.057 47.148 318.281 47.02 318.553 47.02H321.241ZM336.832 52.972C336.864 53.356 336.88 53.66 336.88 53.884C336.88 54.092 336.864 54.372 336.832 54.724C336.736 56.324 336.144 57.564 335.056 58.444C333.984 59.308 332.44 59.74 330.424 59.74C328.248 59.74 326.656 59.22 325.648 58.18C324.656 57.14 324.104 55.484 323.992 53.212L323.968 51.748L323.992 50.308C324.072 48.116 324.448 46.46 325.12 45.34C325.808 44.22 326.824 43.38 328.168 42.82C329.528 42.26 331.648 41.66 334.528 41.02C334.688 40.988 334.84 41.02 334.984 41.116C335.128 41.196 335.208 41.324 335.224 41.5L335.656 43.828C335.688 44.004 335.664 44.164 335.584 44.308C335.504 44.436 335.384 44.516 335.224 44.548C333.128 44.948 331.64 45.284 330.76 45.556C329.896 45.828 329.248 46.228 328.816 46.756C328.4 47.268 328.152 48.068 328.072 49.156C328.44 48.804 328.904 48.516 329.464 48.292C330.024 48.068 330.608 47.956 331.216 47.956C332.96 47.956 334.304 48.396 335.248 49.276C336.208 50.156 336.736 51.388 336.832 52.972ZM332.44 54.628C332.456 54.5 332.464 54.252 332.464 53.884C332.464 53.484 332.456 53.212 332.44 53.068C332.36 51.5 331.736 50.716 330.568 50.716C329.208 50.716 328.488 51.5 328.408 53.068L328.384 53.884L328.408 54.628C328.44 55.428 328.616 56.028 328.936 56.428C329.272 56.812 329.768 57.004 330.424 57.004C331.08 57.004 331.568 56.812 331.888 56.428C332.224 56.028 332.408 55.428 332.44 54.628ZM345.165 59.74C343.149 59.74 341.597 59.276 340.509 58.348C339.437 57.404 338.853 56.068 338.757 54.34C338.741 54.132 338.733 53.772 338.733 53.26C338.733 52.748 338.741 52.388 338.757 52.18C338.853 50.484 339.453 49.164 340.557 48.22C341.677 47.26 343.213 46.78 345.165 46.78C347.117 46.78 348.645 47.26 349.749 48.22C350.869 49.164 351.477 50.484 351.573 52.18C351.605 52.596 351.621 52.956 351.621 53.26C351.621 53.564 351.605 53.924 351.573 54.34C351.477 56.068 350.885 57.404 349.797 58.348C348.725 59.276 347.181 59.74 345.165 59.74ZM345.165 56.716C345.821 56.716 346.309 56.516 346.629 56.116C346.949 55.7 347.133 55.068 347.181 54.22C347.197 54.06 347.205 53.74 347.205 53.26C347.205 52.78 347.197 52.46 347.181 52.3C347.133 51.468 346.949 50.844 346.629 50.428C346.309 50.012 345.821 49.804 345.165 49.804C344.509 49.804 344.021 50.012 343.701 50.428C343.381 50.844 343.197 51.468 343.149 52.3L343.125 53.26L343.149 54.22C343.197 55.068 343.381 55.7 343.701 56.116C344.021 56.516 344.509 56.716 345.165 56.716ZM364.274 59.74C362.882 59.74 361.762 59.548 360.914 59.164C360.066 58.764 359.45 58.292 359.066 57.748C358.698 57.188 358.482 56.628 358.418 56.068V56.02C358.418 55.924 358.466 55.836 358.562 55.756C358.658 55.676 358.754 55.636 358.85 55.636H361.778C361.954 55.636 362.082 55.668 362.162 55.732C362.258 55.78 362.346 55.868 362.426 55.996C362.554 56.284 362.77 56.5 363.074 56.644C363.378 56.772 363.794 56.836 364.322 56.836C364.866 56.836 365.282 56.74 365.57 56.548C365.874 56.34 366.026 56.028 366.026 55.612C366.026 55.228 365.906 54.94 365.666 54.748C365.442 54.54 365.058 54.436 364.514 54.436H363.17C363.026 54.436 362.898 54.388 362.786 54.292C362.69 54.18 362.642 54.052 362.642 53.908V52.468C362.642 52.324 362.69 52.204 362.786 52.108C362.882 51.996 363.01 51.94 363.17 51.94H364.442C364.922 51.94 365.266 51.86 365.474 51.7C365.698 51.524 365.81 51.26 365.81 50.908C365.81 50.556 365.682 50.268 365.426 50.044C365.17 49.82 364.77 49.708 364.226 49.708C363.698 49.708 363.306 49.78 363.05 49.924C362.81 50.068 362.61 50.308 362.45 50.644C362.37 50.772 362.282 50.868 362.186 50.932C362.106 50.98 361.978 51.004 361.802 51.004H358.97C358.842 51.004 358.73 50.964 358.634 50.884C358.554 50.788 358.522 50.684 358.538 50.572C358.602 49.964 358.826 49.372 359.21 48.796C359.594 48.22 360.202 47.74 361.034 47.356C361.866 46.972 362.946 46.78 364.274 46.78C366.21 46.78 367.626 47.108 368.522 47.764C369.418 48.42 369.866 49.276 369.866 50.332C369.866 51.564 369.346 52.428 368.306 52.924C369.554 53.372 370.194 54.388 370.226 55.972C370.226 57.124 369.69 58.044 368.618 58.732C367.562 59.404 366.114 59.74 364.274 59.74ZM376.238 59.74C375.39 59.74 374.614 59.58 373.91 59.26C373.222 58.924 372.678 58.468 372.278 57.892C371.894 57.316 371.702 56.684 371.702 55.996C371.702 54.908 372.15 54.028 373.046 53.356C373.958 52.668 375.206 52.196 376.79 51.94L379.766 51.484V51.196C379.766 50.604 379.646 50.172 379.406 49.9C379.166 49.628 378.758 49.492 378.182 49.492C377.862 49.492 377.59 49.548 377.366 49.66C377.158 49.772 376.918 49.94 376.646 50.164C376.438 50.34 376.254 50.468 376.094 50.548C376.03 50.66 375.95 50.716 375.854 50.716H373.07C372.91 50.716 372.774 50.668 372.662 50.572C372.566 50.46 372.526 50.332 372.542 50.188C372.558 49.756 372.774 49.276 373.19 48.748C373.606 48.204 374.238 47.74 375.086 47.356C375.934 46.972 376.982 46.78 378.23 46.78C380.214 46.78 381.686 47.22 382.646 48.1C383.606 48.964 384.086 50.14 384.086 51.628V58.9C384.086 59.06 384.03 59.204 383.918 59.332C383.806 59.444 383.662 59.5 383.486 59.5H380.534C380.374 59.5 380.23 59.444 380.102 59.332C379.99 59.204 379.934 59.06 379.934 58.9V58.06C379.582 58.556 379.094 58.964 378.47 59.284C377.846 59.588 377.102 59.74 376.238 59.74ZM377.438 56.908C378.142 56.908 378.71 56.676 379.142 56.212C379.59 55.748 379.814 55.076 379.814 54.196V53.908L377.822 54.244C376.478 54.5 375.806 54.98 375.806 55.684C375.806 56.052 375.958 56.348 376.262 56.572C376.582 56.796 376.974 56.908 377.438 56.908ZM395.527 59.5C395.351 59.5 395.199 59.444 395.071 59.332C394.959 59.22 394.903 59.076 394.903 58.9V50.284H391.327C391.151 50.284 390.999 50.228 390.871 50.116C390.759 50.004 390.703 49.86 390.703 49.684V47.62C390.703 47.444 390.759 47.3 390.871 47.188C390.999 47.076 391.151 47.02 391.327 47.02H402.655C402.831 47.02 402.975 47.076 403.087 47.188C403.199 47.3 403.255 47.444 403.255 47.62V49.684C403.255 49.844 403.199 49.988 403.087 50.116C402.975 50.228 402.831 50.284 402.655 50.284H399.055V58.9C399.055 59.06 398.999 59.204 398.887 59.332C398.775 59.444 398.631 59.5 398.455 59.5H395.527ZM410.977 59.74C408.961 59.74 407.409 59.276 406.321 58.348C405.249 57.404 404.665 56.068 404.569 54.34C404.553 54.132 404.545 53.772 404.545 53.26C404.545 52.748 404.553 52.388 404.569 52.18C404.665 50.484 405.265 49.164 406.369 48.22C407.489 47.26 409.025 46.78 410.977 46.78C412.929 46.78 414.457 47.26 415.561 48.22C416.681 49.164 417.289 50.484 417.385 52.18C417.417 52.596 417.433 52.956 417.433 53.26C417.433 53.564 417.417 53.924 417.385 54.34C417.289 56.068 416.697 57.404 415.609 58.348C414.537 59.276 412.993 59.74 410.977 59.74ZM410.977 56.716C411.633 56.716 412.121 56.516 412.441 56.116C412.761 55.7 412.945 55.068 412.993 54.22C413.009 54.06 413.017 53.74 413.017 53.26C413.017 52.78 413.009 52.46 412.993 52.3C412.945 51.468 412.761 50.844 412.441 50.428C412.121 50.012 411.633 49.804 410.977 49.804C410.321 49.804 409.833 50.012 409.513 50.428C409.193 50.844 409.009 51.468 408.961 52.3L408.937 53.26L408.961 54.22C409.009 55.068 409.193 55.7 409.513 56.116C409.833 56.516 410.321 56.716 410.977 56.716ZM419.482 61.3C419.338 61.3 419.218 61.244 419.122 61.132C419.042 61.036 419.01 60.916 419.026 60.772L419.77 55.948C419.802 55.724 419.89 55.532 420.034 55.372C420.178 55.196 420.386 55.108 420.658 55.108H423.562C423.69 55.108 423.802 55.156 423.898 55.252C423.994 55.348 424.042 55.46 424.042 55.588C424.042 55.684 424.026 55.772 423.994 55.852L422.122 60.628C421.946 61.076 421.65 61.3 421.234 61.3H419.482ZM439.359 59.5C439.183 59.5 439.031 59.444 438.903 59.332C438.791 59.22 438.735 59.076 438.735 58.9V55.324C438.015 55.9 436.943 56.188 435.519 56.188C433.967 56.188 432.791 55.796 431.991 55.012C431.207 54.212 430.815 52.964 430.815 51.268V47.62C430.815 47.444 430.871 47.3 430.983 47.188C431.111 47.076 431.255 47.02 431.415 47.02H434.535C434.711 47.02 434.855 47.076 434.967 47.188C435.079 47.3 435.135 47.444 435.135 47.62V51.052C435.135 51.596 435.263 51.98 435.519 52.204C435.775 52.428 436.207 52.54 436.815 52.54C437.407 52.54 437.871 52.452 438.207 52.276C438.559 52.084 438.735 51.812 438.735 51.46V47.62C438.735 47.444 438.791 47.3 438.903 47.188C439.031 47.076 439.183 47.02 439.359 47.02H442.599C442.775 47.02 442.919 47.076 443.031 47.188C443.159 47.3 443.223 47.444 443.223 47.62V58.9C443.223 59.076 443.159 59.22 443.031 59.332C442.919 59.444 442.775 59.5 442.599 59.5H439.359ZM449.855 59.5C449.679 59.5 449.527 59.444 449.399 59.332C449.287 59.22 449.231 59.076 449.231 58.9V50.284H445.655C445.479 50.284 445.327 50.228 445.199 50.116C445.087 50.004 445.031 49.86 445.031 49.684V47.62C445.031 47.444 445.087 47.3 445.199 47.188C445.327 47.076 445.479 47.02 445.655 47.02H456.983C457.159 47.02 457.303 47.076 457.415 47.188C457.527 47.3 457.583 47.444 457.583 47.62V49.684C457.583 49.844 457.527 49.988 457.415 50.116C457.303 50.228 457.159 50.284 456.983 50.284H453.383V58.9C453.383 59.06 453.327 59.204 453.215 59.332C453.103 59.444 452.959 59.5 452.783 59.5H449.855ZM465.306 59.74C463.29 59.74 461.738 59.276 460.65 58.348C459.578 57.404 458.994 56.068 458.898 54.34C458.882 54.132 458.874 53.772 458.874 53.26C458.874 52.748 458.882 52.388 458.898 52.18C458.994 50.484 459.594 49.164 460.698 48.22C461.818 47.26 463.354 46.78 465.306 46.78C467.258 46.78 468.786 47.26 469.89 48.22C471.01 49.164 471.618 50.484 471.714 52.18C471.746 52.596 471.762 52.956 471.762 53.26C471.762 53.564 471.746 53.924 471.714 54.34C471.618 56.068 471.026 57.404 469.938 58.348C468.866 59.276 467.322 59.74 465.306 59.74ZM465.306 56.716C465.962 56.716 466.45 56.516 466.77 56.116C467.09 55.7 467.274 55.068 467.322 54.22C467.338 54.06 467.346 53.74 467.346 53.26C467.346 52.78 467.338 52.46 467.322 52.3C467.274 51.468 467.09 50.844 466.77 50.428C466.45 50.012 465.962 49.804 465.306 49.804C464.65 49.804 464.162 50.012 463.842 50.428C463.522 50.844 463.338 51.468 463.29 52.3L463.266 53.26L463.29 54.22C463.338 55.068 463.522 55.7 463.842 56.116C464.162 56.516 464.65 56.716 465.306 56.716ZM479.687 59.5C479.527 59.5 479.383 59.444 479.255 59.332C479.143 59.204 479.087 59.06 479.087 58.9V47.62C479.087 47.444 479.143 47.3 479.255 47.188C479.383 47.076 479.527 47.02 479.687 47.02H485.375C487.247 47.02 488.639 47.332 489.551 47.956C490.479 48.58 490.943 49.46 490.943 50.596C490.943 51.156 490.831 51.636 490.607 52.036C490.383 52.42 490.063 52.756 489.647 53.044C490.175 53.316 490.583 53.692 490.871 54.172C491.175 54.636 491.327 55.18 491.327 55.804C491.327 56.972 490.863 57.884 489.935 58.54C489.007 59.18 487.607 59.5 485.735 59.5H479.687ZM485.471 51.868C486.495 51.868 487.007 51.484 487.007 50.716C487.007 50.332 486.871 50.068 486.599 49.924C486.343 49.764 485.967 49.684 485.471 49.684H483.167V51.868H485.471ZM485.519 56.836C486.559 56.836 487.079 56.476 487.079 55.756C487.079 55.356 486.951 55.068 486.695 54.892C486.439 54.716 486.047 54.628 485.519 54.628H483.167V56.836H485.519ZM494.335 59.5C494.175 59.5 494.031 59.444 493.903 59.332C493.791 59.204 493.735 59.06 493.735 58.9V47.62C493.735 47.444 493.791 47.3 493.903 47.188C494.031 47.076 494.175 47.02 494.335 47.02H497.359C497.535 47.02 497.679 47.076 497.791 47.188C497.903 47.3 497.959 47.444 497.959 47.62V50.836H500.119C501.719 50.836 502.967 51.228 503.863 52.012C504.775 52.78 505.231 53.844 505.231 55.204C505.231 56.596 504.767 57.66 503.839 58.396C502.927 59.132 501.647 59.5 499.999 59.5H494.335ZM507.271 59.5C507.111 59.5 506.967 59.444 506.839 59.332C506.727 59.204 506.671 59.06 506.671 58.9V47.62C506.671 47.444 506.727 47.3 506.839 47.188C506.967 47.076 507.111 47.02 507.271 47.02H510.271C510.447 47.02 510.591 47.076 510.703 47.188C510.831 47.3 510.895 47.444 510.895 47.62V58.9C510.895 59.076 510.831 59.22 510.703 59.332C510.591 59.444 510.447 59.5 510.271 59.5H507.271ZM499.759 56.644C500.351 56.644 500.783 56.532 501.055 56.308C501.327 56.084 501.463 55.716 501.463 55.204C501.463 54.692 501.327 54.308 501.055 54.052C500.783 53.796 500.351 53.668 499.759 53.668H497.887V56.644H499.759ZM524.598 59.74C522.774 59.74 521.294 59.26 520.158 58.3C519.038 57.324 518.438 55.972 518.358 54.244L518.334 53.284L518.358 52.3C518.422 50.572 519.022 49.22 520.158 48.244C521.294 47.268 522.774 46.78 524.598 46.78C525.99 46.78 527.158 47.028 528.102 47.524C529.046 48.02 529.75 48.612 530.214 49.3C530.678 49.972 530.926 50.588 530.958 51.148C530.974 51.324 530.918 51.476 530.79 51.604C530.662 51.716 530.51 51.772 530.334 51.772H527.118C526.942 51.772 526.806 51.732 526.71 51.652C526.614 51.572 526.526 51.444 526.446 51.268C526.27 50.82 526.038 50.492 525.75 50.284C525.478 50.076 525.126 49.972 524.694 49.972C523.462 49.972 522.822 50.788 522.774 52.42L522.75 53.332L522.774 54.124C522.79 54.956 522.958 55.572 523.278 55.972C523.598 56.356 524.07 56.548 524.694 56.548C525.158 56.548 525.518 56.452 525.774 56.26C526.046 56.052 526.27 55.716 526.446 55.252C526.526 55.076 526.614 54.948 526.71 54.868C526.806 54.788 526.942 54.748 527.118 54.748H530.334C530.494 54.748 530.638 54.804 530.766 54.916C530.894 55.028 530.958 55.164 530.958 55.324C530.958 55.82 530.734 56.42 530.286 57.124C529.854 57.812 529.158 58.42 528.198 58.948C527.238 59.476 526.038 59.74 524.598 59.74ZM538.656 59.5C538.496 59.5 538.352 59.444 538.224 59.332C538.112 59.204 538.056 59.06 538.056 58.9V47.62C538.056 47.444 538.112 47.3 538.224 47.188C538.352 47.076 538.496 47.02 538.656 47.02H541.656C541.832 47.02 541.976 47.076 542.088 47.188C542.216 47.3 542.28 47.444 542.28 47.62V51.532H546.36V47.62C546.36 47.444 546.416 47.3 546.528 47.188C546.656 47.076 546.808 47.02 546.984 47.02H549.984C550.16 47.02 550.304 47.076 550.416 47.188C550.528 47.3 550.584 47.444 550.584 47.62V58.9C550.584 59.06 550.528 59.204 550.416 59.332C550.304 59.444 550.16 59.5 549.984 59.5H546.984C546.808 59.5 546.656 59.444 546.528 59.332C546.416 59.22 546.36 59.076 546.36 58.9V54.796H542.28V58.9C542.28 59.076 542.216 59.22 542.088 59.332C541.976 59.444 541.832 59.5 541.656 59.5H538.656ZM557.199 59.74C556.351 59.74 555.575 59.58 554.871 59.26C554.183 58.924 553.639 58.468 553.239 57.892C552.855 57.316 552.663 56.684 552.663 55.996C552.663 54.908 553.111 54.028 554.007 53.356C554.919 52.668 556.167 52.196 557.751 51.94L560.727 51.484V51.196C560.727 50.604 560.607 50.172 560.367 49.9C560.127 49.628 559.719 49.492 559.143 49.492C558.823 49.492 558.551 49.548 558.327 49.66C558.119 49.772 557.879 49.94 557.607 50.164C557.399 50.34 557.215 50.468 557.055 50.548C556.991 50.66 556.911 50.716 556.815 50.716H554.031C553.871 50.716 553.735 50.668 553.623 50.572C553.527 50.46 553.487 50.332 553.503 50.188C553.519 49.756 553.735 49.276 554.151 48.748C554.567 48.204 555.199 47.74 556.047 47.356C556.895 46.972 557.943 46.78 559.191 46.78C561.175 46.78 562.647 47.22 563.607 48.1C564.567 48.964 565.047 50.14 565.047 51.628V58.9C565.047 59.06 564.991 59.204 564.879 59.332C564.767 59.444 564.623 59.5 564.447 59.5H561.495C561.335 59.5 561.191 59.444 561.063 59.332C560.951 59.204 560.895 59.06 560.895 58.9V58.06C560.543 58.556 560.055 58.964 559.431 59.284C558.807 59.588 558.063 59.74 557.199 59.74ZM558.398 56.908C559.103 56.908 559.671 56.676 560.103 56.212C560.551 55.748 560.775 55.076 560.775 54.196V53.908L558.783 54.244C557.439 54.5 556.767 54.98 556.767 55.684C556.767 56.052 556.919 56.348 557.223 56.572C557.543 56.796 557.935 56.908 558.398 56.908ZM581.793 47.02C581.921 47.02 582.033 47.068 582.129 47.164C582.225 47.26 582.273 47.372 582.273 47.5V58.996C582.273 59.14 582.225 59.26 582.129 59.356C582.033 59.452 581.913 59.5 581.769 59.5H578.625C578.481 59.5 578.361 59.452 578.265 59.356C578.169 59.26 578.121 59.14 578.121 58.996V53.692L576.153 57.124C576.057 57.3 575.953 57.436 575.841 57.532C575.745 57.612 575.617 57.652 575.457 57.652H574.473C574.185 57.652 573.945 57.476 573.753 57.124L571.785 53.716V58.996C571.785 59.14 571.737 59.26 571.641 59.356C571.545 59.452 571.433 59.5 571.305 59.5H568.161C568.017 59.5 567.897 59.452 567.801 59.356C567.705 59.26 567.657 59.14 567.657 58.996V47.5C567.657 47.372 567.705 47.26 567.801 47.164C567.897 47.068 568.009 47.02 568.137 47.02H571.065C571.353 47.02 571.585 47.164 571.761 47.452L574.953 53.116L578.169 47.452C578.345 47.164 578.577 47.02 578.865 47.02H581.793ZM597.382 47.02C597.542 47.02 597.678 47.076 597.79 47.188C597.918 47.3 597.982 47.436 597.982 47.596V58.9C597.982 59.06 597.926 59.204 597.814 59.332C597.702 59.444 597.558 59.5 597.382 59.5H594.382C594.206 59.5 594.054 59.444 593.926 59.332C593.814 59.22 593.758 59.076 593.758 58.9V52.396L589.078 59.116C588.902 59.372 588.678 59.5 588.406 59.5H585.718C585.558 59.5 585.414 59.444 585.286 59.332C585.174 59.204 585.118 59.06 585.118 58.9V47.62C585.118 47.444 585.174 47.3 585.286 47.188C585.414 47.076 585.558 47.02 585.718 47.02H588.718C588.894 47.02 589.038 47.076 589.15 47.188C589.278 47.3 589.342 47.444 589.342 47.62V54.124L594.022 47.404C594.198 47.148 594.422 47.02 594.694 47.02H597.382ZM600.997 59.5C600.821 59.5 600.669 59.444 600.541 59.332C600.429 59.22 600.373 59.076 600.373 58.9V55.732C600.373 55.556 600.429 55.412 600.541 55.3C600.669 55.172 600.821 55.108 600.997 55.108H604.165C604.341 55.108 604.485 55.172 604.597 55.3C604.709 55.412 604.765 55.556 604.765 55.732V58.9C604.765 59.06 604.709 59.204 604.597 59.332C604.485 59.444 604.341 59.5 604.165 59.5H600.997ZM619.647 59.74C617.359 59.74 615.559 59.188 614.247 58.084C612.951 56.98 612.263 55.364 612.183 53.236C612.167 52.804 612.159 52.1 612.159 51.124C612.159 50.132 612.167 49.412 612.183 48.964C612.263 46.884 612.959 45.284 614.271 44.164C615.599 43.028 617.391 42.46 619.647 42.46C621.071 42.46 622.343 42.692 623.463 43.156C624.599 43.62 625.495 44.292 626.151 45.172C626.807 46.052 627.151 47.092 627.183 48.292C627.183 48.436 627.127 48.556 627.015 48.652C626.919 48.748 626.799 48.796 626.655 48.796H623.247C623.023 48.796 622.855 48.756 622.743 48.676C622.647 48.58 622.559 48.412 622.479 48.172C622.255 47.388 621.911 46.844 621.447 46.54C620.999 46.22 620.399 46.06 619.647 46.06C617.839 46.06 616.903 47.068 616.839 49.084C616.823 49.516 616.815 50.18 616.815 51.076C616.815 51.972 616.823 52.652 616.839 53.116C616.903 55.132 617.839 56.14 619.647 56.14C620.383 56.14 620.983 55.98 621.447 55.66C621.927 55.34 622.271 54.796 622.479 54.028C622.543 53.788 622.631 53.628 622.743 53.548C622.855 53.452 623.023 53.404 623.247 53.404H626.655C626.799 53.404 626.919 53.452 627.015 53.548C627.127 53.644 627.183 53.764 627.183 53.908C627.151 55.108 626.807 56.148 626.151 57.028C625.495 57.908 624.599 58.58 623.463 59.044C622.343 59.508 621.071 59.74 619.647 59.74ZM635.224 59.74C633.272 59.74 631.736 59.22 630.616 58.18C629.496 57.124 628.92 55.596 628.888 53.596V52.852C628.952 50.948 629.544 49.46 630.664 48.388C631.784 47.316 633.296 46.78 635.2 46.78C636.576 46.78 637.736 47.06 638.68 47.62C639.64 48.164 640.352 48.924 640.816 49.9C641.296 50.86 641.536 51.956 641.536 53.188V53.788C641.536 53.964 641.472 54.116 641.344 54.244C641.232 54.356 641.088 54.412 640.912 54.412H633.304V54.556C633.32 55.276 633.488 55.86 633.808 56.308C634.128 56.74 634.584 56.956 635.176 56.956C635.56 56.956 635.864 56.884 636.088 56.74C636.328 56.58 636.552 56.38 636.76 56.14C636.904 55.98 637.016 55.884 637.096 55.852C637.192 55.804 637.336 55.78 637.528 55.78H640.672C640.816 55.78 640.936 55.828 641.032 55.924C641.144 56.004 641.2 56.108 641.2 56.236C641.2 56.652 640.96 57.14 640.48 57.7C640.016 58.26 639.328 58.74 638.416 59.14C637.52 59.54 636.456 59.74 635.224 59.74ZM637.12 51.964V51.916C637.12 51.148 636.952 50.556 636.616 50.14C636.28 49.708 635.808 49.492 635.2 49.492C634.592 49.492 634.12 49.708 633.784 50.14C633.464 50.556 633.304 51.148 633.304 51.916V51.964H637.12ZM644.288 59.5C644.128 59.5 643.984 59.444 643.856 59.332C643.744 59.204 643.688 59.06 643.688 58.9V47.62C643.688 47.444 643.744 47.3 643.856 47.188C643.984 47.076 644.128 47.02 644.288 47.02H649.976C651.848 47.02 653.24 47.332 654.152 47.956C655.08 48.58 655.544 49.46 655.544 50.596C655.544 51.156 655.432 51.636 655.208 52.036C654.984 52.42 654.664 52.756 654.248 53.044C654.776 53.316 655.184 53.692 655.472 54.172C655.776 54.636 655.928 55.18 655.928 55.804C655.928 56.972 655.464 57.884 654.536 58.54C653.608 59.18 652.208 59.5 650.336 59.5H644.288ZM650.072 51.868C651.096 51.868 651.608 51.484 651.608 50.716C651.608 50.332 651.472 50.068 651.2 49.924C650.944 49.764 650.568 49.684 650.072 49.684H647.768V51.868H650.072ZM650.12 56.836C651.16 56.836 651.68 56.476 651.68 55.756C651.68 55.356 651.552 55.068 651.296 54.892C651.04 54.716 650.648 54.628 650.12 54.628H647.768V56.836H650.12ZM664.193 59.74C662.241 59.74 660.705 59.22 659.585 58.18C658.465 57.124 657.889 55.596 657.857 53.596V52.852C657.921 50.948 658.513 49.46 659.633 48.388C660.753 47.316 662.265 46.78 664.169 46.78C665.545 46.78 666.705 47.06 667.649 47.62C668.609 48.164 669.321 48.924 669.785 49.9C670.265 50.86 670.505 51.956 670.505 53.188V53.788C670.505 53.964 670.441 54.116 670.313 54.244C670.201 54.356 670.057 54.412 669.881 54.412H662.273V54.556C662.289 55.276 662.457 55.86 662.777 56.308C663.097 56.74 663.553 56.956 664.145 56.956C664.529 56.956 664.833 56.884 665.057 56.74C665.297 56.58 665.521 56.38 665.729 56.14C665.873 55.98 665.985 55.884 666.065 55.852C666.161 55.804 666.305 55.78 666.497 55.78H669.641C669.785 55.78 669.905 55.828 670.001 55.924C670.113 56.004 670.169 56.108 670.169 56.236C670.169 56.652 669.929 57.14 669.449 57.7C668.985 58.26 668.297 58.74 667.385 59.14C666.489 59.54 665.425 59.74 664.193 59.74ZM666.089 51.964V51.916C666.089 51.148 665.921 50.556 665.585 50.14C665.249 49.708 664.777 49.492 664.169 49.492C663.561 49.492 663.089 49.708 662.753 50.14C662.433 50.556 662.273 51.148 662.273 51.916V51.964H666.089ZM673.281 64.06C673.105 64.06 672.953 64.004 672.825 63.892C672.713 63.78 672.657 63.636 672.657 63.46V47.62C672.657 47.444 672.713 47.3 672.825 47.188C672.953 47.076 673.105 47.02 673.281 47.02H676.137C676.313 47.02 676.457 47.076 676.569 47.188C676.681 47.3 676.737 47.444 676.737 47.62V48.484C677.601 47.348 678.841 46.78 680.457 46.78C682.009 46.78 683.225 47.268 684.105 48.244C685.001 49.204 685.481 50.58 685.545 52.372C685.561 52.58 685.569 52.876 685.569 53.26C685.569 53.644 685.561 53.948 685.545 54.172C685.481 55.9 685.001 57.26 684.105 58.252C683.209 59.244 681.993 59.74 680.457 59.74C678.905 59.74 677.745 59.212 676.977 58.156V63.46C676.977 63.636 676.921 63.78 676.809 63.892C676.697 64.004 676.553 64.06 676.377 64.06H673.281ZM679.065 56.404C679.785 56.404 680.297 56.196 680.601 55.78C680.921 55.348 681.105 54.756 681.153 54.004C681.169 53.844 681.177 53.596 681.177 53.26C681.177 52.924 681.169 52.676 681.153 52.516C681.105 51.764 680.921 51.18 680.601 50.764C680.297 50.332 679.785 50.116 679.065 50.116C678.377 50.116 677.865 50.34 677.529 50.788C677.193 51.22 677.009 51.772 676.977 52.444C676.961 52.652 676.953 52.956 676.953 53.356C676.953 53.74 676.961 54.036 676.977 54.244C677.009 54.868 677.193 55.388 677.529 55.804C677.881 56.204 678.393 56.404 679.065 56.404ZM699.052 47.02C699.228 47.02 699.372 47.076 699.484 47.188C699.596 47.3 699.652 47.444 699.652 47.62V58.9C699.652 59.06 699.596 59.204 699.484 59.332C699.372 59.444 699.228 59.5 699.052 59.5H695.956C695.78 59.5 695.628 59.444 695.5 59.332C695.388 59.22 695.332 59.076 695.332 58.9V55.54H693.7L691.756 59.14C691.644 59.38 691.46 59.5 691.204 59.5H688.18C688.02 59.5 687.892 59.452 687.796 59.356C687.7 59.26 687.652 59.148 687.652 59.02C687.652 58.892 687.692 58.78 687.772 58.684L690.148 54.748C689.476 54.396 688.964 53.924 688.612 53.332C688.26 52.74 688.084 52.044 688.084 51.244C688.084 49.884 688.532 48.844 689.428 48.124C690.34 47.388 691.604 47.02 693.22 47.02H699.052ZM695.428 49.876H693.46C692.9 49.876 692.484 49.988 692.212 50.212C691.956 50.42 691.828 50.764 691.828 51.244C691.828 51.692 691.956 52.044 692.212 52.3C692.484 52.556 692.876 52.684 693.388 52.684H695.428V49.876ZM703.116 59.5C702.956 59.5 702.812 59.444 702.684 59.332C702.572 59.204 702.516 59.06 702.516 58.9V47.62C702.516 47.444 702.572 47.3 702.684 47.188C702.812 47.076 702.956 47.02 703.116 47.02H706.116C706.292 47.02 706.436 47.076 706.548 47.188C706.676 47.3 706.74 47.444 706.74 47.62V51.532H710.82V47.62C710.82 47.444 710.876 47.3 710.988 47.188C711.116 47.076 711.268 47.02 711.444 47.02H714.444C714.62 47.02 714.764 47.076 714.876 47.188C714.988 47.3 715.044 47.444 715.044 47.62V58.9C715.044 59.06 714.988 59.204 714.876 59.332C714.764 59.444 714.62 59.5 714.444 59.5H711.444C711.268 59.5 711.116 59.444 710.988 59.332C710.876 59.22 710.82 59.076 710.82 58.9V54.796H706.74V58.9C706.74 59.076 706.676 59.22 706.548 59.332C706.436 59.444 706.292 59.5 706.116 59.5H703.116ZM723.891 59.74C721.875 59.74 720.323 59.276 719.235 58.348C718.163 57.404 717.579 56.068 717.483 54.34C717.467 54.132 717.459 53.772 717.459 53.26C717.459 52.748 717.467 52.388 717.483 52.18C717.579 50.484 718.179 49.164 719.283 48.22C720.403 47.26 721.939 46.78 723.891 46.78C725.843 46.78 727.371 47.26 728.475 48.22C729.595 49.164 730.203 50.484 730.299 52.18C730.331 52.596 730.347 52.956 730.347 53.26C730.347 53.564 730.331 53.924 730.299 54.34C730.203 56.068 729.611 57.404 728.523 58.348C727.451 59.276 725.907 59.74 723.891 59.74ZM723.891 56.716C724.547 56.716 725.035 56.516 725.355 56.116C725.675 55.7 725.859 55.068 725.907 54.22C725.923 54.06 725.931 53.74 725.931 53.26C725.931 52.78 725.923 52.46 725.907 52.3C725.859 51.468 725.675 50.844 725.355 50.428C725.035 50.012 724.547 49.804 723.891 49.804C723.235 49.804 722.747 50.012 722.427 50.428C722.107 50.844 721.923 51.468 721.875 52.3L721.851 53.26L721.875 54.22C721.923 55.068 722.107 55.7 722.427 56.116C722.747 56.516 723.235 56.716 723.891 56.716ZM740.578 59.5C740.402 59.5 740.25 59.444 740.122 59.332C740.01 59.22 739.954 59.076 739.954 58.9V55.324C739.234 55.9 738.162 56.188 736.738 56.188C735.186 56.188 734.01 55.796 733.21 55.012C732.426 54.212 732.034 52.964 732.034 51.268V47.62C732.034 47.444 732.09 47.3 732.202 47.188C732.33 47.076 732.474 47.02 732.634 47.02H735.754C735.93 47.02 736.074 47.076 736.186 47.188C736.298 47.3 736.354 47.444 736.354 47.62V51.052C736.354 51.596 736.482 51.98 736.738 52.204C736.994 52.428 737.426 52.54 738.034 52.54C738.626 52.54 739.09 52.452 739.426 52.276C739.778 52.084 739.954 51.812 739.954 51.46V47.62C739.954 47.444 740.01 47.3 740.122 47.188C740.25 47.076 740.402 47.02 740.578 47.02H743.818C743.994 47.02 744.138 47.076 744.25 47.188C744.378 47.3 744.442 47.444 744.442 47.62V58.9C744.442 59.076 744.378 59.22 744.25 59.332C744.138 59.444 743.994 59.5 743.818 59.5H740.578ZM760.074 58.684C760.138 58.764 760.17 58.868 760.17 58.996C760.17 59.14 760.122 59.26 760.026 59.356C759.93 59.452 759.802 59.5 759.642 59.5H756.066C755.778 59.5 755.546 59.372 755.37 59.116L752.634 54.82H751.434V58.9C751.434 59.06 751.378 59.204 751.266 59.332C751.154 59.444 751.01 59.5 750.834 59.5H747.882C747.722 59.5 747.578 59.444 747.45 59.332C747.338 59.204 747.282 59.06 747.282 58.9V47.62C747.282 47.444 747.338 47.3 747.45 47.188C747.578 47.076 747.722 47.02 747.882 47.02H750.834C751.01 47.02 751.154 47.076 751.266 47.188C751.378 47.3 751.434 47.444 751.434 47.62V51.532H752.682L755.202 47.404C755.378 47.148 755.602 47.02 755.874 47.02H759.09C759.25 47.02 759.378 47.068 759.474 47.164C759.586 47.26 759.642 47.38 759.642 47.524C759.642 47.588 759.602 47.7 759.522 47.86L756.282 53.092L760.074 58.684ZM765.769 59.74C764.921 59.74 764.145 59.58 763.441 59.26C762.753 58.924 762.209 58.468 761.809 57.892C761.425 57.316 761.233 56.684 761.233 55.996C761.233 54.908 761.681 54.028 762.577 53.356C763.489 52.668 764.737 52.196 766.321 51.94L769.297 51.484V51.196C769.297 50.604 769.177 50.172 768.937 49.9C768.697 49.628 768.289 49.492 767.713 49.492C767.393 49.492 767.121 49.548 766.897 49.66C766.689 49.772 766.449 49.94 766.177 50.164C765.969 50.34 765.785 50.468 765.625 50.548C765.561 50.66 765.481 50.716 765.385 50.716H762.601C762.441 50.716 762.305 50.668 762.193 50.572C762.097 50.46 762.057 50.332 762.073 50.188C762.089 49.756 762.305 49.276 762.721 48.748C763.137 48.204 763.769 47.74 764.617 47.356C765.465 46.972 766.513 46.78 767.761 46.78C769.745 46.78 771.217 47.22 772.177 48.1C773.137 48.964 773.617 50.14 773.617 51.628V58.9C773.617 59.06 773.561 59.204 773.449 59.332C773.337 59.444 773.193 59.5 773.017 59.5H770.065C769.905 59.5 769.761 59.444 769.633 59.332C769.521 59.204 769.465 59.06 769.465 58.9V58.06C769.113 58.556 768.625 58.964 768.001 59.284C767.377 59.588 766.633 59.74 765.769 59.74ZM766.969 56.908C767.673 56.908 768.241 56.676 768.673 56.212C769.121 55.748 769.345 55.076 769.345 54.196V53.908L767.353 54.244C766.009 54.5 765.337 54.98 765.337 55.684C765.337 56.052 765.489 56.348 765.793 56.572C766.113 56.796 766.505 56.908 766.969 56.908ZM776.083 61.3C775.939 61.3 775.819 61.244 775.723 61.132C775.643 61.036 775.611 60.916 775.627 60.772L776.371 55.948C776.403 55.724 776.491 55.532 776.635 55.372C776.779 55.196 776.987 55.108 777.259 55.108H780.163C780.291 55.108 780.403 55.156 780.499 55.252C780.595 55.348 780.643 55.46 780.643 55.588C780.643 55.684 780.627 55.772 780.595 55.852L778.723 60.628C778.547 61.076 778.251 61.3 777.835 61.3H776.083ZM788.616 59.5C788.456 59.5 788.312 59.444 788.184 59.332C788.072 59.204 788.016 59.06 788.016 58.9V47.62C788.016 47.444 788.072 47.3 788.184 47.188C788.312 47.076 788.456 47.02 788.616 47.02H794.304C796.176 47.02 797.568 47.332 798.48 47.956C799.408 48.58 799.872 49.46 799.872 50.596C799.872 51.156 799.76 51.636 799.536 52.036C799.312 52.42 798.992 52.756 798.576 53.044C799.104 53.316 799.512 53.692 799.8 54.172C800.104 54.636 800.256 55.18 800.256 55.804C800.256 56.972 799.792 57.884 798.864 58.54C797.936 59.18 796.536 59.5 794.664 59.5H788.616ZM794.4 51.868C795.424 51.868 795.936 51.484 795.936 50.716C795.936 50.332 795.8 50.068 795.528 49.924C795.272 49.764 794.896 49.684 794.4 49.684H792.096V51.868H794.4ZM794.448 56.836C795.488 56.836 796.008 56.476 796.008 55.756C796.008 55.356 795.88 55.068 795.624 54.892C795.368 54.716 794.976 54.628 794.448 54.628H792.096V56.836H794.448ZM808.521 59.74C806.569 59.74 805.033 59.22 803.913 58.18C802.793 57.124 802.217 55.596 802.185 53.596V52.852C802.249 50.948 802.841 49.46 803.961 48.388C805.081 47.316 806.593 46.78 808.497 46.78C809.873 46.78 811.033 47.06 811.977 47.62C812.937 48.164 813.649 48.924 814.113 49.9C814.593 50.86 814.833 51.956 814.833 53.188V53.788C814.833 53.964 814.769 54.116 814.641 54.244C814.529 54.356 814.385 54.412 814.209 54.412H806.601V54.556C806.617 55.276 806.785 55.86 807.105 56.308C807.425 56.74 807.881 56.956 808.473 56.956C808.857 56.956 809.161 56.884 809.385 56.74C809.625 56.58 809.849 56.38 810.057 56.14C810.201 55.98 810.313 55.884 810.393 55.852C810.489 55.804 810.633 55.78 810.825 55.78H813.969C814.113 55.78 814.233 55.828 814.329 55.924C814.441 56.004 814.497 56.108 814.497 56.236C814.497 56.652 814.257 57.14 813.777 57.7C813.313 58.26 812.625 58.74 811.713 59.14C810.817 59.54 809.753 59.74 808.521 59.74ZM810.417 51.964V51.916C810.417 51.148 810.249 50.556 809.913 50.14C809.577 49.708 809.105 49.492 808.497 49.492C807.889 49.492 807.417 49.708 807.081 50.14C806.761 50.556 806.601 51.148 806.601 51.916V51.964H810.417ZM822.313 59.74C820.921 59.74 819.801 59.548 818.953 59.164C818.105 58.764 817.489 58.292 817.105 57.748C816.737 57.188 816.521 56.628 816.457 56.068V56.02C816.457 55.924 816.505 55.836 816.601 55.756C816.697 55.676 816.793 55.636 816.889 55.636H819.817C819.993 55.636 820.121 55.668 820.201 55.732C820.297 55.78 820.385 55.868 820.465 55.996C820.593 56.284 820.809 56.5 821.113 56.644C821.417 56.772 821.833 56.836 822.361 56.836C822.905 56.836 823.321 56.74 823.609 56.548C823.913 56.34 824.065 56.028 824.065 55.612C824.065 55.228 823.945 54.94 823.705 54.748C823.481 54.54 823.097 54.436 822.553 54.436H821.209C821.065 54.436 820.937 54.388 820.825 54.292C820.729 54.18 820.681 54.052 820.681 53.908V52.468C820.681 52.324 820.729 52.204 820.825 52.108C820.921 51.996 821.049 51.94 821.209 51.94H822.481C822.961 51.94 823.305 51.86 823.513 51.7C823.737 51.524 823.849 51.26 823.849 50.908C823.849 50.556 823.721 50.268 823.465 50.044C823.209 49.82 822.809 49.708 822.265 49.708C821.737 49.708 821.345 49.78 821.089 49.924C820.849 50.068 820.649 50.308 820.489 50.644C820.409 50.772 820.321 50.868 820.225 50.932C820.145 50.98 820.017 51.004 819.841 51.004H817.009C816.881 51.004 816.769 50.964 816.673 50.884C816.593 50.788 816.561 50.684 816.577 50.572C816.641 49.964 816.865 49.372 817.249 48.796C817.633 48.22 818.241 47.74 819.073 47.356C819.905 46.972 820.985 46.78 822.313 46.78C824.249 46.78 825.665 47.108 826.561 47.764C827.457 48.42 827.905 49.276 827.905 50.332C827.905 51.564 827.385 52.428 826.345 52.924C827.593 53.372 828.233 54.388 828.265 55.972C828.265 57.124 827.729 58.044 826.657 58.732C825.601 59.404 824.153 59.74 822.313 59.74ZM836.365 59.74C834.413 59.74 832.877 59.22 831.757 58.18C830.637 57.124 830.061 55.596 830.029 53.596V52.852C830.093 50.948 830.685 49.46 831.805 48.388C832.925 47.316 834.437 46.78 836.341 46.78C837.717 46.78 838.877 47.06 839.821 47.62C840.781 48.164 841.493 48.924 841.957 49.9C842.437 50.86 842.677 51.956 842.677 53.188V53.788C842.677 53.964 842.613 54.116 842.485 54.244C842.373 54.356 842.229 54.412 842.053 54.412H834.445V54.556C834.461 55.276 834.629 55.86 834.949 56.308C835.269 56.74 835.725 56.956 836.317 56.956C836.701 56.956 837.005 56.884 837.229 56.74C837.469 56.58 837.693 56.38 837.901 56.14C838.045 55.98 838.157 55.884 838.237 55.852C838.333 55.804 838.477 55.78 838.669 55.78H841.813C841.957 55.78 842.077 55.828 842.173 55.924C842.285 56.004 842.341 56.108 842.341 56.236C842.341 56.652 842.101 57.14 841.621 57.7C841.157 58.26 840.469 58.74 839.557 59.14C838.661 59.54 837.597 59.74 836.365 59.74ZM838.261 51.964V51.916C838.261 51.148 838.093 50.556 837.757 50.14C837.421 49.708 836.949 49.492 836.341 49.492C835.733 49.492 835.261 49.708 834.925 50.14C834.605 50.556 834.445 51.148 834.445 51.916V51.964H838.261ZM848.621 59.5C848.445 59.5 848.293 59.444 848.165 59.332C848.053 59.22 847.997 59.076 847.997 58.9V50.284H844.421C844.245 50.284 844.093 50.228 843.965 50.116C843.853 50.004 843.797 49.86 843.797 49.684V47.62C843.797 47.444 843.853 47.3 843.965 47.188C844.093 47.076 844.245 47.02 844.421 47.02H855.749C855.925 47.02 856.069 47.076 856.181 47.188C856.293 47.3 856.349 47.444 856.349 47.62V49.684C856.349 49.844 856.293 49.988 856.181 50.116C856.069 50.228 855.925 50.284 855.749 50.284H852.149V58.9C852.149 59.06 852.093 59.204 851.981 59.332C851.869 59.444 851.725 59.5 851.549 59.5H848.621ZM863.71 59.5C863.55 59.5 863.406 59.444 863.278 59.332C863.166 59.204 863.11 59.06 863.11 58.9V47.62C863.11 47.444 863.166 47.3 863.278 47.188C863.406 47.076 863.55 47.02 863.71 47.02H869.398C871.27 47.02 872.662 47.332 873.574 47.956C874.502 48.58 874.966 49.46 874.966 50.596C874.966 51.156 874.854 51.636 874.63 52.036C874.406 52.42 874.086 52.756 873.67 53.044C874.198 53.316 874.606 53.692 874.894 54.172C875.198 54.636 875.35 55.18 875.35 55.804C875.35 56.972 874.886 57.884 873.958 58.54C873.03 59.18 871.63 59.5 869.758 59.5H863.71ZM869.494 51.868C870.518 51.868 871.03 51.484 871.03 50.716C871.03 50.332 870.894 50.068 870.622 49.924C870.366 49.764 869.99 49.684 869.494 49.684H867.19V51.868H869.494ZM869.542 56.836C870.582 56.836 871.102 56.476 871.102 55.756C871.102 55.356 870.974 55.068 870.718 54.892C870.462 54.716 870.07 54.628 869.542 54.628H867.19V56.836H869.542ZM883.567 59.74C881.743 59.74 880.263 59.26 879.127 58.3C878.007 57.324 877.407 55.972 877.327 54.244L877.303 53.284L877.327 52.3C877.391 50.572 877.991 49.22 879.127 48.244C880.263 47.268 881.743 46.78 883.567 46.78C884.959 46.78 886.127 47.028 887.071 47.524C888.015 48.02 888.719 48.612 889.183 49.3C889.647 49.972 889.895 50.588 889.927 51.148C889.943 51.324 889.887 51.476 889.759 51.604C889.631 51.716 889.479 51.772 889.303 51.772H886.087C885.911 51.772 885.775 51.732 885.679 51.652C885.583 51.572 885.495 51.444 885.415 51.268C885.239 50.82 885.007 50.492 884.719 50.284C884.447 50.076 884.095 49.972 883.663 49.972C882.431 49.972 881.791 50.788 881.743 52.42L881.719 53.332L881.743 54.124C881.759 54.956 881.927 55.572 882.247 55.972C882.567 56.356 883.039 56.548 883.663 56.548C884.127 56.548 884.487 56.452 884.743 56.26C885.015 56.052 885.239 55.716 885.415 55.252C885.495 55.076 885.583 54.948 885.679 54.868C885.775 54.788 885.911 54.748 886.087 54.748H889.303C889.463 54.748 889.607 54.804 889.735 54.916C889.863 55.028 889.927 55.164 889.927 55.324C889.927 55.82 889.703 56.42 889.255 57.124C888.823 57.812 888.127 58.42 887.167 58.948C886.207 59.476 885.007 59.74 883.567 59.74ZM897.841 59.74C895.889 59.74 894.353 59.22 893.233 58.18C892.113 57.124 891.537 55.596 891.505 53.596V52.852C891.569 50.948 892.161 49.46 893.281 48.388C894.401 47.316 895.913 46.78 897.817 46.78C899.193 46.78 900.353 47.06 901.297 47.62C902.257 48.164 902.969 48.924 903.433 49.9C903.913 50.86 904.153 51.956 904.153 53.188V53.788C904.153 53.964 904.089 54.116 903.961 54.244C903.849 54.356 903.705 54.412 903.529 54.412H895.921V54.556C895.937 55.276 896.105 55.86 896.425 56.308C896.745 56.74 897.201 56.956 897.793 56.956C898.177 56.956 898.481 56.884 898.705 56.74C898.945 56.58 899.169 56.38 899.377 56.14C899.521 55.98 899.633 55.884 899.713 55.852C899.809 55.804 899.953 55.78 900.145 55.78H903.289C903.433 55.78 903.553 55.828 903.649 55.924C903.761 56.004 903.817 56.108 903.817 56.236C903.817 56.652 903.577 57.14 903.097 57.7C902.633 58.26 901.945 58.74 901.033 59.14C900.137 59.54 899.073 59.74 897.841 59.74ZM899.737 51.964V51.916C899.737 51.148 899.569 50.556 899.233 50.14C898.897 49.708 898.425 49.492 897.817 49.492C897.209 49.492 896.737 49.708 896.401 50.14C896.081 50.556 895.921 51.148 895.921 51.916V51.964H899.737ZM906.906 59.5C906.746 59.5 906.602 59.444 906.474 59.332C906.362 59.204 906.306 59.06 906.306 58.9V47.62C906.306 47.444 906.362 47.3 906.474 47.188C906.602 47.076 906.746 47.02 906.906 47.02H915.018C915.194 47.02 915.338 47.076 915.45 47.188C915.562 47.3 915.618 47.444 915.618 47.62V49.684C915.618 49.844 915.562 49.988 915.45 50.116C915.338 50.228 915.194 50.284 915.018 50.284H910.53V58.9C910.53 59.076 910.466 59.22 910.338 59.332C910.226 59.444 910.082 59.5 909.906 59.5H906.906ZM917.199 62.14C917.023 62.14 916.871 62.084 916.743 61.972C916.631 61.86 916.575 61.716 916.575 61.54V56.836C916.575 56.66 916.631 56.516 916.743 56.404C916.871 56.292 917.023 56.236 917.199 56.236H917.439C918.015 56.236 918.415 55.82 918.639 54.988C918.863 54.14 918.975 52.828 918.975 51.052V47.62C918.975 47.444 919.031 47.3 919.143 47.188C919.271 47.076 919.423 47.02 919.599 47.02H929.199C929.375 47.02 929.519 47.076 929.631 47.188C929.743 47.3 929.799 47.444 929.799 47.62V56.212H930.807C930.983 56.212 931.127 56.276 931.239 56.404C931.367 56.516 931.431 56.66 931.431 56.836V61.54C931.431 61.716 931.367 61.86 931.239 61.972C931.127 62.084 930.983 62.14 930.807 62.14H927.807C927.647 62.14 927.503 62.084 927.375 61.972C927.263 61.86 927.207 61.716 927.207 61.54V59.5H920.799V61.54C920.799 61.716 920.743 61.86 920.631 61.972C920.519 62.084 920.375 62.14 920.199 62.14H917.199ZM925.575 56.212V50.284H922.983V51.508C922.983 53.716 922.711 55.292 922.167 56.236L925.575 56.212ZM937.027 59.74C936.179 59.74 935.403 59.58 934.699 59.26C934.011 58.924 933.467 58.468 933.067 57.892C932.683 57.316 932.491 56.684 932.491 55.996C932.491 54.908 932.939 54.028 933.835 53.356C934.747 52.668 935.995 52.196 937.579 51.94L940.555 51.484V51.196C940.555 50.604 940.435 50.172 940.195 49.9C939.955 49.628 939.547 49.492 938.971 49.492C938.651 49.492 938.379 49.548 938.155 49.66C937.947 49.772 937.707 49.94 937.435 50.164C937.227 50.34 937.043 50.468 936.883 50.548C936.819 50.66 936.739 50.716 936.643 50.716H933.859C933.699 50.716 933.563 50.668 933.451 50.572C933.355 50.46 933.315 50.332 933.331 50.188C933.347 49.756 933.563 49.276 933.979 48.748C934.395 48.204 935.027 47.74 935.875 47.356C936.723 46.972 937.771 46.78 939.019 46.78C941.003 46.78 942.475 47.22 943.435 48.1C944.395 48.964 944.875 50.14 944.875 51.628V58.9C944.875 59.06 944.819 59.204 944.707 59.332C944.595 59.444 944.451 59.5 944.275 59.5H941.323C941.163 59.5 941.019 59.444 940.891 59.332C940.779 59.204 940.723 59.06 940.723 58.9V58.06C940.371 58.556 939.883 58.964 939.259 59.284C938.635 59.588 937.891 59.74 937.027 59.74ZM938.227 56.908C938.931 56.908 939.499 56.676 939.931 56.212C940.379 55.748 940.603 55.076 940.603 54.196V53.908L938.611 54.244C937.267 54.5 936.595 54.98 936.595 55.684C936.595 56.052 936.747 56.348 937.051 56.572C937.371 56.796 937.763 56.908 938.227 56.908ZM948.205 54.076C948.029 54.076 947.877 54.02 947.749 53.908C947.637 53.78 947.581 53.628 947.581 53.452V43.3C947.581 43.124 947.637 42.98 947.749 42.868C947.877 42.756 948.029 42.7 948.205 42.7H951.109C951.285 42.7 951.429 42.756 951.541 42.868C951.669 42.98 951.733 43.124 951.733 43.3V53.452C951.733 53.628 951.669 53.78 951.541 53.908C951.429 54.02 951.285 54.076 951.109 54.076H948.205ZM948.109 59.5C947.949 59.5 947.805 59.444 947.677 59.332C947.565 59.204 947.509 59.06 947.509 58.9V55.804C947.509 55.628 947.565 55.484 947.677 55.372C947.805 55.244 947.949 55.18 948.109 55.18H951.205C951.365 55.18 951.501 55.244 951.613 55.372C951.741 55.484 951.805 55.628 951.805 55.804V58.9C951.805 59.06 951.749 59.204 951.637 59.332C951.525 59.444 951.381 59.5 951.205 59.5H948.109Z" fill="#70C05B"/>
</svg>
